<svg xmlns="http://www.w3.org/2000/svg" preserveAspectRatio="none" width="150" height="45" viewBox="0 0 150 45">
    <path fill="#FAC53C" fill-rule="evenodd" d="M6.316.374c10.199.48 21.84.72 34.925.72C57.363 1.094 78.004.73 103.16 0h30.526a6 6 0 0 1 4.977 2.65C146.221 13.877 150 20.602 150 22.822c0 3.586-11.244 17.757-13.132 19.676-1.888 1.919-5.52 2.772-9.009 2.37-3.49-.4-8.964-.451-19.76-1.094-10.795-.642-25.156.452-58.63 1.095-15.965.306-30.57.076-43.814-.69a6 6 0 0 1-5.63-6.53c.66-7.269.99-12.34.99-15.215 0-2.832-.32-8.018-.96-15.56a6 6 0 0 1 6.26-6.5z"/>
</svg>
