<svg height="61" viewBox="0 0 49 61" width="49" xmlns="http://www.w3.org/2000/svg"><g fill="none" fill-rule="evenodd"><path d="m26.481707 54.5511303c.043891-.2212121.1303692-.4424242.3911074-.4424242.3046292 0 .4345638.2654545.4345638.4866666.1738255 1.4157576 1.5209731 3.0527273 3.4330537 3.7606061.9560402.353497 2.3466443.1769697 2.8681208.0438.5649329-.1765273.9564748.0884848 1.0864094.3986242.0873473.2212122.1303691.619394-.3911074 1.1060606-.3041946.2650122-1.8686242 1.4157576-4.3017466.5309091-2.6073826-1.0175757-3.9110739-3.9818182-3.5204011-5.8842424" fill="#74c04c"/><path d="m23.8309985 33.13762c1.0864094-.6636364 4.4325503-2.8315152 8.1263423-2.8315152 3.9110738 0 6.5619127 1.3715152 6.5184563 3.3624243-.0434563 2.0793939-4.0848993 3.2739394-7.4310402 3.3181818-8.6912752.0884849-15.8615772-2.6987879-18.7731544-13.6709091-.2607382-.9733333-.4345637-1.2830303-.9560403-1.2830303-.6518456 0-.8256711.7963637-.8256711 1.6369697-.1738255 8.8484849 7.7352349 18.5375758 19.6422819 18.4048485 10.7337248-.1327273 12.254698-5.3975758 12.2981543-7.6981818.0430219-2.3006061-2.085906-6.3709091-10.1692265-6.3709091-4.4321157 0-8.7342969 2.5218182-9.7337936 4.070303-.6518456.9733334.3041946 1.6812121 1.3036913 1.0618182" fill="#fac53c"/><path d="m28.2636357 46.9413448c-.1308037.1765273-.2172818.2654546-.2172818.4866667 0 .309697.30376.5309091.6079547.4866667.0873473 0 .17426-.0442424.2611728-.0884849 1.3471476-1.0175757 2.3901006-1.1945454 4.1718121-1.0175757 1.5639949.1769697 2.5639261 1.150303 2.3466443 2.0351515-.2611729.9733333-1.9120806 1.769697-3.9110739 1.6812121-3.3461409-.1327273-8.4739933-1.0175757-10.1257701-8.3175757-.1303691-.5751516-.3037601-.8410485-.6079547-.8410485-.391542.0446848-.4345638.3986242-.4784547 1.3272727-.0864782 4.6901394 3.3900319 10.3089273 10.0388574 11.0606061 4.5190285.5313515 6.9960419-1.9462243 7.3436929-4.1141031.2172819-1.5042424-.7383238-3.9375757-4.1713775-4.38-3.1292936-.3543818-4.8675486 1.2830303-5.2582215 1.6812121" fill="#b1d461"/><path d="m2.01581091 1.01757576c-.17382551-.30969697-.52147651-.57515152-.9125839-.57515152-.56493288 0-1.21677852.48666667-1.08640939 1.06181818 1.6078859 7.87515152 8.95201342 23.00606058 28.85503358 23.35999998 14.8186241.2654546 19.3380872-7.4769697 19.4684564-12.1224242.1303691-3.76060608-1.8686242-11.32606062-15.600839-11.54727275-10.3426174-.17696969-17.5129194 6.06121213-19.425 8.18484849-.2172819.22121212-.347651.61939394-.347651.92909086 0 .7521213.6518457 1.2830304 1.3036913 1.1945455.3911074-.0442424.695302-.2654545.9994966-.4866667 5.9535235-4.77818178 12.2981544-5.83999996 16.6872484-5.75151512 5.2147651.08848485 10.5598993 2.56606061 10.4295302 6.41515152-.1303692 3.8490909-5.1713088 6.4593939-12.2981544 6.3266667-14.2971477-.2654546-21.55436242-5.1763637-28.07281879-16.98909094" fill="#f5804b"/><path d="m40.3877473 59.8157133-.1303691-1.5927272-.6518456 1.5927272h-.2172819l-.6518457-1.5484848-.1303691 1.5931697h-.3041946l.2172819-2.1240788h.3041946l.7391929 1.6816545.6948675-1.6816545h.3041946l.1738255 2.1240788h-.347651zm-2.3031879-2.1236363v.2654545h-.7387584v1.8581818h-.3041946v-1.8581818h-.7383238v-.2654545z" fill="#117159"/></g></svg>