<?xml version="1.0" encoding="UTF-8"?>
<svg width="13px" height="22px" viewBox="0 0 13 22" version="1.1" xmlns="http://www.w3.org/2000/svg" xmlns:xlink="http://www.w3.org/1999/xlink">
    <!-- Generator: sketchtool 53 (72520) - https://sketchapp.com -->
    <title>0DCBEA3E-0B2B-4063-8149-AE684491907F</title>
    <desc>Created with sketchtool.</desc>
    <g id="Symbols" stroke="none" stroke-width="1" fill="none" fill-rule="evenodd">
        <g id="Desktop/Icon/Nav/Locate" transform="translate(-3.000000, 0.000000)" fill="#2B3936" fill-rule="nonzero">
            <path d="M9.27288519,20.7391067 C12.1829593,20.7391067 13.956737,20.3005733 14.4724037,20.0013733 C14.0207741,19.7510622 12.6225519,19.3839067 10.3196259,19.27684 C9.91807037,19.7192844 9.64410741,19.9754622 9.59595926,20.0199511 C9.5039963,20.1045289 9.38844074,20.1465733 9.27288519,20.1465733 C9.15251481,20.1465733 9.03214444,20.1006178 8.93921852,20.0096844 C8.89251481,19.9642178 8.63636667,19.7095067 8.25936667,19.27684 C5.93573704,19.3809733 4.52595926,19.7500844 4.07336667,20.0008844 C4.58855185,20.3000844 6.36232963,20.7391067 9.27288519,20.7391067 Z M9.18284815,17.8077289 C8.96810741,17.8077289 8.66188519,17.8043067 8.3079963,17.7925733 C8.7057,18.3063956 9.04947778,18.70484 9.28203333,18.9610178 C9.52373704,18.7067956 9.88484815,18.3049289 10.3003667,17.7823067 C9.8444037,17.8023511 9.44525556,17.8077289 9.18284815,17.8077289 Z M5.1619963,16.5630178 C5.4037,16.6578622 5.83221852,16.7634622 6.42781111,16.8504844 C6.31658889,16.6813289 6.20536667,16.5058178 6.09366296,16.3249289 C5.61844074,16.4085289 5.33003333,16.4955511 5.1619963,16.5630178 Z M9.27288519,0.977728889 C6.37966296,0.977728889 4.11332963,3.48475111 4.11332963,6.68501778 C4.11332963,11.0331956 6.12158889,14.73164 7.7099963,16.9810178 C8.15055185,17.0088844 8.64118148,17.0255067 9.18284815,17.0255067 C9.84007037,17.0255067 10.4130333,16.9995956 10.9205148,16.9604844 C12.4925519,14.7648844 14.4329222,11.1549289 14.4329222,6.68501778 C14.4329222,3.48475111 12.1665889,0.977728889 9.27288519,0.977728889 Z M13.2037,16.5630178 C13.0655148,16.5077733 12.840663,16.43884 12.5031444,16.3694178 C12.4102185,16.5195067 12.3168111,16.6651956 12.2238852,16.8064844 C12.6726259,16.72924 13.0019593,16.6422178 13.2037,16.5630178 Z M11.1126259,18.3415956 C15.0853296,18.6236844 15.5461074,19.5740844 15.5461074,19.9935511 C15.5461074,21.6337733 10.3205889,21.7168844 9.27288519,21.7168844 C8.22518148,21.7168844 3.00014444,21.6337733 3.00014444,19.9935511 C3.00014444,19.5711511 3.46477407,18.6129289 7.48851481,18.3381733 C7.33781111,18.1440844 7.18036667,17.9343511 7.01858889,17.71044 C5.64107037,17.5779511 4.20721852,17.27044 4.20721852,16.5605733 C4.20721852,16.1151956 4.6574037,15.8208844 5.66995926,15.6111511 C4.35744074,13.3011511 3.15036667,10.21724 3.15036667,6.68501778 C3.15036667,2.93621778 5.83992222,-4.88888889e-05 9.27288519,-4.88888889e-05 C12.7063296,-4.88888889e-05 15.3958852,2.93621778 15.3958852,6.68501778 C15.3958852,10.3267511 14.218663,13.3911067 12.9244407,15.6624844 C13.776663,15.8687956 14.1584778,16.1503956 14.1584778,16.5605733 C14.1584778,17.2249733 12.9047,17.5359067 11.6157741,17.6820844 C11.4424407,17.9187067 11.2739222,18.1387067 11.1126259,18.3415956 Z M9.27288519,3.60555556 C7.53762593,3.60555556 6.1264037,5.03897778 6.1264037,6.80044444 C6.1264037,8.5624 7.53762593,9.99582222 9.27288519,9.99582222 C11.0081444,9.99582222 12.4198481,8.5624 12.4198481,6.80044444 C12.4198481,5.03897778 11.0081444,3.60555556 9.27288519,3.60555556 Z M9.27288519,10.7780444 C7.11344074,10.7780444 5.35603333,8.9936 5.35603333,6.80044444 C5.35603333,4.60777778 7.11344074,2.82333333 9.27288519,2.82333333 C11.4328111,2.82333333 13.1902185,4.60777778 13.1902185,6.80044444 C13.1902185,8.9936 11.4328111,10.7780444 9.27288519,10.7780444 Z" id="Location-Icon"></path>
        </g>
    </g>
</svg>