<svg xmlns="http://www.w3.org/2000/svg" width="31" height="31" viewBox="0 0 31 31">
    <path fill="#036D58" fill-rule="evenodd" d="M18.877 14.313a241.712 241.712 0 0 1 11.272 11.774c.291.327.382.81.253 1.361-.127.552-.458 1.106-.93 1.56-.477.457-1.04.757-1.588.846-.541.087-.988-.04-1.279-.373a239.55 239.55 0 0 0-11.158-11.655A239.922 239.922 0 0 0 4.66 29.886a1.25 1.25 0 0 1-.065.072c-.61.613-1.835.404-2.789-.474-.994-.917-1.331-2.227-.752-2.92a242.154 242.154 0 0 1 10.847-12.132A239.813 239.813 0 0 0 .429 4.34a1.25 1.25 0 0 1-.072-.064C-.26 3.669-.06 2.443.814 1.484c.91-1 2.218-1.346 2.916-.77a242.059 242.059 0 0 1 11.6 10.205A241.6 241.6 0 0 1 26.594.305c.329-.29.812-.377 1.363-.245.55.131 1.102.465 1.553.94.454.48.75 1.045.836 1.593.084.542-.046.989-.381 1.277a239.424 239.424 0 0 0-11.09 10.443z"/>
</svg>
