<svg height="45" viewBox="0 0 122 45" width="122" xmlns="http://www.w3.org/2000/svg"><g fill="none" fill-rule="evenodd"><path d="m57.6749488 24.0669134.4179701-2.8574077.1072932-.5617581c.2021104-1.0577195.4111518-2.1519313.6357189-3.2215384.2151409-1.027033.7463391-3.3246565.8805248-4.1587234.05129-.3198593.104798-.6510532.2461921-.9623423.3986759-.8755353 1.2572985-.6317014 1.8946809-.4951322 1.564484.3350643 1.3851076 1.5923849 1.2803096 2.4518857-.0862226.6999859-.4998697 2.3343921-.6160346 2.80022-.0670929.2714795-.1411169.5686694-.2231809.9673185-.0543397.2651211-.1095111.5296892-.1655143.7939809.0579439-.1202583.1153333-.2396871.1721681-.3588396.3992304-.8348962.7762813-1.6241773 1.2714379-2.3932771.509296-.7914927.9844911-1.4071596 1.494896-1.9374017.665384-.6908628 1.8727787-1.5254826 3.0865499-1.6051019.5420107-.0351098.7857076-.0132698 1.3720772.1260638.581102.1379514 1.058515.4387353 1.4186541.8937814.2132001.2692678.3906358.5741985.5264851.9064983.6554032 1.5995728.8572363 3.4106342.6007863 5.3825928-.0060994.0439565-.012476.0876365-.0194071.1313165.1610784-.4180011.311067-.7992335.4222416-1.0143161l.2104277-.4086015c.8034511-1.5652923 1.5625434-3.0440539 3.5805975-5.1782921 1.0377218-1.0975292 2.0294211-1.719831 3.0316557-1.9028447 1.2040678-.2195058 3.469423.9418847 3.9096854 2.0045804.2181905.5266482.3204932 1.1085875.3124532 1.7795455-.0094263.7779464-.1031345 1.6111839-.2952641 2.621906-.1350175.7093854-.3044132 1.4345287-.4677095 2.1356204-.1524839.6543707-.3099581 1.3316872-.4388762 1.9888225-.0867772.445923-.2755799 1.2932598-.4754723 2.1900822-.3573667 1.6064841-.8026194 3.605259-.8198085 3.9978261-.0385368.8970988.038814 1.3698381.5664081 1.4624507.0074856.0013823.0158029.0019352.0243974.0019352.6287879 0 3.6371552-3.555497 4.3383035-4.6690606.1409357-.2234627.8344329-1.1921208 1.0956737-1.5721784.0952874-.6095208.2057667-1.3220488.2635949-1.7150459.2436969-1.8906807 1.1569364-5.7906415 2.0782159-8.8756109.72915-2.4394452 1.3535019-4.70831728 1.8553123-6.53126628.9215568-3.34898457 1.3426895-4.84378063 1.6629055-5.17856851.3263154-.34142281 1.1322617-.40721927 1.8336873-.149839.8968822.32870585 1.3845532 1.06794844 1.3371446 2.02780269-.0044359.09399495-.0975897.56396967-.7535474 3.33295014l-.0241201.10256507c-.3950718 1.66702797-2.492972 9.19021739-3.4392035 12.57486479.7563198-1.3900194 2.0077962-3.4756013 3.5997273-4.922847.5899738-.536877 1.2922312-.9335909 2.0876423-1.1790836 1.0235823-.3162654 2.0011423-.3029955 2.9046786.0395331 1.220702.4636163 2.034134 1.3239465 2.418116 2.5572154.16191.5208426.262272 1.0732011.306077 1.6877622.065706.9228092-.039092 1.819908-.137236 2.4986068-.192684 1.3303049-.51595 2.6597804-.96148 3.9502757-1.771862 5.1368237-5.3946003 9.7002782-10.4124272 9.7002782-2.3044465 0-3.0277743-1.0497023-3.1700002-1.4690856-.0346554-.1022887-.0568349-.2103828-.0668156-.321518-.0230112-.2532335.103689-.5122725.3299195-.6753814.2273396-.1642147.5054146-.19656.7241596-.0854248.7657461.3862087 1.8835911.062479 2.8361992-.4926441 2.8669732-1.670069 4.7827246-5.3372541 5.5351629-7.3440461.4621646-1.230228 1.0338404-3.1546362 1.3019347-4.3804409.028556-.1321458.0704198-.3090774.1186601-.515037.2079325-.8857641.5561501-2.3686725.5095732-2.9376184-.0238429-.2855788-.3143939-.4315474-.5614177-.424636-.1111746.0033175-.3260381.0500385-.4369355.0992476-.4144787.1830137-2.4954671 1.4395049-4.9449119 4.9220176-1.0521384 1.4956254-2.0881967 3.074464-2.5417667 4.4865998-.2068236.643589-.8278486 2.7482463-.9872635 3.6011122-.1461073.7829226-.5314755 1.1555849-1.2367825 1.6078665-.4629963.2960841-.9905904.3455696-1.3776221.1268932-.8099557-.4569985-.8075555-2.1651071-.8001557-2.9112657-1.0568568 1.5174706-3.7313623 5.1203502-5.7335822 5.5631948-.4702047.1036709-1.5079264.0754724-2.4206114-.6889277-.7416259-.6214724-1.6215962-1.9354665-1.6038527-4.6679548.0099808-1.5100011.3049677-2.9130139.6462542-4.5377441l.124205-.5941034c.1474935-.7082795.3720606-1.5904497.5891421-2.4430391.2079325-.8149915.4222416-1.657905.5644674-2.3316276.0607163-.2888962.1023028-.5949327.1427803-.8912932l.0177436-.1307635c.0291105-.2150826.0316057-1.1013996-.289442-1.3538037-.1092339-.0854248-.2522915-.0870835-.4399852-.0055291-.1422258.0663494-1.2767055 1.0602077-2.4452861 2.8444529-.8852379 1.3510391-1.5897132 2.5461571-2.3651628 4.3262555-.736081 1.6894209-1.0770903 2.6199708-1.5090354 3.7979486-.1502659.4099839-.3113442.849272-.5034739 1.3590564-.176604.4691453-.3468314 1.0383676-.5115139 1.588791-.1255912.4196597-.2442514.8160972-.3651295 1.1699606-.0363188.1072648-.0704198.2142531-.1047979.321518-.0363189.1130703-.072915.2264172-.1117291.3403169-.0354871.1025651-.0798461.2078947-.1316906.3137773-.3401775.6939038-1.3210644 1.1683019-2.034966 1.2097702-.5178905.0298572-1.4485963.018799-1.8422818-.399755-.1638508-.1736142-.273362-.3806795-.3252065-.6159433-.0316057-.1429276-.0665384-.3101833-.083173-.4860092-.0105352-.1138997.0008318-.2424516.0327148-.3710035.0995303-.4039018.2295574-.9499019.3659611-1.5213358.1813172-.761912.373724-1.5691627.5189995-2.1461258.273362-1.0826006.5237127-2.1917409.7657461-3.2641126.1408396-.6234077.2816792-1.2473682.4280637-1.8718817 1.0809717-4.6162576.6204705-6.2951731.4485797-6.4629818-.2021104-.1987716-.3324148-.1548152-.6354417-.0257103-1.5478495.6590704-2.8800036 3.6323516-3.675692 5.4088561l-.1946248.4323767c-.7097429 1.5652923-1.8131713 4.2836814-2.6781705 6.8287327-.0939855.2764557-.216527.6162198-.3410093.9626188-.152761.4232537-.3091263.8572892-.4216871 1.1984355-.1940703.5877449-.6099353 1.2982361-1.2509218 1.4099242-.3304741.0577792-.7011484.0774076-.9869863.0024881l-.0415865-.0113347c-.6770282-.1758258-1.1339252-.4857327-1.3584923-.920874-.2608859-.5048081-.1616328-1.0527434-.0737467-1.5359879.020516-.1114117.0404776-.2217175.0562804-.3303646.0196913-.1392165.0391627-.2787796.0584312-.4185853-.4272417.6490844-.8810826 1.3171083-1.2738105 1.8589196-.2819564.3898025-1.7571681 2.3305217-3.1178784 2.3305217-.4205781-.0011059-.8442059-.0771312-1.2645068-.2244821-.8234126-.2902785-1.5007181-.8611595-2.0144499-1.6974381-.3615253-.5891271-.6165892-1.2808193-.7798855-2.1143333-.1483252-.758871-.1020256-2.2771658-.0174663-3.34622.0097035-.1224699.0723605-.5280304.1388989-.9570897.0108125-.0677317.0219022-.1409924.0332692-.2145297-.97756 1.6266655-2.9828609 4.9474516-4.9925978 6.0861727-.5564273.3157124-1.0962201.4934734-1.6507067.5440648-.6071629.0547383-1.1369749-.052803-1.6163286-.3300881-.3715061-.215359-.8541867-.8528659-1.0862393-1.1591788-.3321375-.4384588-.5866469-.9609601-.7768358-1.5968083-.1502659-.5020435-.2345479-1.0372618-.2575591-1.6363413-.0368733-.9612366.0543397-1.9473541.2800158-3.0153026.2650446-1.2531737.6506901-2.4983303 1.1469556-3.7011891.6498584-1.5755211 1.3898208-2.9182666 2.26286-4.1042616.4679867-.6361246.9196161-1.2094938 1.4763207-1.6111839.8733165-.630872 1.8514309-1.1080345 2.8730725-1.2636791.3315831-.0505914 2.0845926-.2753499 3.789639.4362471.8724848.3643687 1.5170755 1.1589024 1.9304453 2.0396903.1347402.287514.2423106.6247899.1308588.9474138-.1239277.358563-.4987607.5935504-.8522459.6214724-.3534853.0276456-.6847911-.1147291-.9739558-.2980193-.2891648-.1832901-.5508825-.4102602-.8500281-.5772395-1.0806944-.6029499-2.4502764-.3165418-3.380705.6698522-.7696275.8160973-1.4316846 1.7579819-1.9670414 2.797179-1.0829124 2.1021692-1.8608572 4.2679233-2.3119321 6.4369949-.144721.6963919-.2137546 1.3059768-.2242898 1.9738938l.0069311.1009063c.0072083.1141763.0166346.2681621.0407547.4191069.0288333.1799727.072915.3477813.1311361.499832.09454.2452162.2373203.3168182.4815717.2380283.1103428-.0362157.2187449-.102565.340732-.2090005.4854531-.4232537.9068629-.8448487 1.2891815-1.2904953.6354417-.7409013 1.2179299-1.5625277 1.7139182-2.2738483.5869241-.8415312 1.1380838-1.7098786 1.6864711-2.5768437.6199161-.9794826 1.2484267-2.2055637 2.0491054-3.1789643.3701198-.4503464.777113-.8465074 1.2376142-1.1395505.7718454-.4912618 1.837846-.5636932 2.3840153.0862542.5159499.6134552.3989532 1.5885146.2547866 2.4458037-.4397079 2.6172063-.9916993 5.266205-.9090808 7.8803703l.0027724.1230228c.0221795 1.3347282.2298347 1.6714512.3995077 1.7190016.526485.146798 1.0338403-.3486106 1.2908449-.6568588 1.4386156-1.7214897 2.2753359-2.8035374 3.4294999-4.6649137.0029752-.0047975.0059516-.0096022.0089291-.0144143zm-20.932954-12.776943c.848919.5642461.8184223 1.5033662.7147333 2.4176053-.1771585 1.5553398-3.0080901 16.618859-6.6793462 24.7790024-.8802475 1.9567536-3.3748829 6.0001949-8.3680352 6.0001949-2.6934188 0-4.875601-1.6078665-5.3507961-2.4142878-.5506052-.9346968-.5597543-1.635512-.0360416-1.8951039.5433969-.2689915 1.1536094.2291818 1.6917387.4951322.7532701.3729387 1.6415577.561758 2.6174542.6554765 3.113997.2985721 5.6457831-2.9085906 8.1365371-12.0308.4893344-1.7917095 1.1278258-4.3956459 1.5289969-6.0444278.550328-2.2580903 1.2417728-4.935011 1.983676-7.6616937.0682018-.2507454.1330768-.5647991.2012786-.8970988.2716985-1.3195232.6102126-2.9619466 1.6551427-3.5413978.5705667-.3165418 1.3008256-.2640152 1.9046616.1373985zm3.0549442-7.2558844c.0759646.65271195-.0255064 1.22165782-.300809 1.69052671-.1985063.33810535-.4463618.60377929-.7363583.78900462-.5422879.34722838-1.1475101.51780156-1.9041071.53715346-.0266154.00082937-.0537853.00138228-.0809551.00138228-.3703971 0-.766855-.07906633-1.2096126-.24079293-.2819565-.10311798-.6396004-.37072712-.7407942-1.05854894-.1522066-1.02786236.0202388-1.86967002.5123457-2.50081842.3046904-.3914613.6881179-.66764056 1.1719075-.84484868.3911903-.14237469.7893118-.20678887 1.1832745-.18881925.4638281.02073418.9381914.18771343 1.4086733.49651447.3898041.25544508.6237975.69943296.6964353 1.31924668zm74.31937 15.6378559 1.256189-2.6296468c.298591-.5894036 1.116736-1.5865794 2.408413-1.4790381 1.300826.1080942 1.315242 1.1072052 1.31746 1.467427.009981 1.5091717-1.767426 4.9178707-2.207411 7.1613089-.176327.8987575-1.248427 4.4017279.645977 5.275328.600786.2770086 1.216266.2358167 1.817053-.1318694.276966-.1691909.519554-.3914613.792361-.5675636.273085-.1758258.625461-.3220709.935696-.2941489.44858.0398097.760479.3284294.647086.8818938-.113392.5534643-.703366 1.1569672-1.146955 1.5304588-1.318847 1.1105226-3.154198 1.6117369-4.725058 1.1721723-1.103706-.3090775-2.021104-1.1409328-2.45998-2.1375556-.478245-1.0861946-.435272-2.1842767-.18714-3.4974413-1.258684 2.5950898-2.600265 4.3420135-3.824848 4.9640388-1.142797.5800041-2.385125.6908629-3.408984.3046542-1.404515-.5296891-2.305279-1.9332548-2.410354-3.7537157-.06238-1.0873003.006654-2.213028.210982-3.4424266.242866-1.4618978.507633-2.4424862.995581-3.8695507 1.090121-3.0457126 2.719203-5.8481442 5.848171-7.232358 1.748296-.7735231 3.708961-.9811413 5.49524-.5819393.319107.0710491.644313.1672557.878307.3848264.23427.2175706.352376.5871919.196011.8907403-.141672.2753499-.453293.4177246-.739408.5366005-.879139.3665803-3.477186.6325307-5.878113 3.4294332-.550606.6411008-.964253 1.3836609-1.34768 2.1276032-.875257 1.6990969-3.330801 7.0222517-1.919356 9.792338.092045.180802.249242.2653975.441926.2775615.779608.0486563 2.267851-2.5644032 2.864756-3.6812843l.203496-.3790208c.601895-1.1110755 2.502676-4.7558677 3.300582-6.5188258z" fill="#117058"/><path d="m16.4835115 33.6274091c.0273199-.1363636.0811482-.2727273.2434444-.2727273.1896162 0 .2704938.1636364.2704938.3.1081975.8727273.9467282 1.8818182 2.1369008 2.3181818.5950862.2179091 1.4606663.1090909 1.7852588.027.3516419-.1088181.5953568.0545455.6762344.2457273.0543693.1363636.0811482.3818182-.2434443.6818182-.1893457.1633636-1.1631232.8727273-2.6776179.3272727-1.6229626-.6272727-2.4344439-2.4545454-2.19127-3.6272727" fill="#74c04c"/><path d="m14.8335807 20.4273c.6762344-.4090909 2.7590364-1.7454545 5.0582335-1.7454545 2.4344439 0 4.0844559.8454545 4.0574065 2.0727272-.0270494 1.2818182-2.5426414 2.0181818-4.6254435 2.0454546-5.4098753.0545454-9.87302249-1.6636364-11.68533074-8.4272728-.16229626-.6-.27049376-.790909-.59508629-.790909-.40574065 0-.51393815.490909-.51393815 1.0090909-.10819751 5.4545454 4.81478908 11.4272727 12.22631828 11.3454545 6.6811961-.0818182 7.6279243-3.3272727 7.6549737-4.7454545.0267788-1.4181819-1.2983701-3.9272728-6.3298247-3.9272728-2.7587659 0-5.4366542 1.5545455-6.0587899 2.5090909-.4057407.6.1893456 1.0363637.8114813.6545455" fill="#fac53c"/><path d="m17.5926712 28.9364455c-.0814186.1088181-.1352469.1636363-.1352469.3 0 .190909.1890752.3272727.3784208.3.0543693 0 .108468-.0272728.1625668-.0545455.8385307-.6272727 1.4877157-.7363636 2.5967401-.6272727.9735071.1090909 1.5959133.7090909 1.4606664 1.2545454-.1625668.6-1.1901726 1.0909091-2.4344439 1.0363637-2.082802-.0818182-5.2746285-.6272728-6.3027753-5.1272728-.0811481-.3545454-.1890751-.5184545-.3784208-.5184545-.2437149.0275454-.2704938.2457273-.2978136.8181818-.0538283 2.8911818 2.1101219 6.3548182 6.2486765 6.8181818 2.8128647.3275455 4.3546792-1.1997272 4.5710742-2.5360909.1352469-.9272727-.4595689-2.4272727-2.5964697-2.7-1.9478256-.2184545-3.0298007.7909091-3.2729746 1.0363637" fill="#b1d461"/><path d="m1.25473944.62727273c-.10819751-.19090909-.32459252-.35454546-.56803691-.35454546-.3516419 0-.75738255.3-.67623442.65454546 1.00082694 4.85454545 5.57217162 14.18181817 17.96078619 14.39999997 9.2238375.1636364 12.0369727-4.6090909 12.1181208-7.47272725.0811481-2.31818181-1.1631232-6.98181818-9.7107263-7.11818181-6.4377516-.10909091-10.90089881 3.73636363-12.09107139 5.04545454-.13524689.13636364-.21639502.38181818-.21639502.57272727 0 .46363637.40574066.7909091.81148131.73636364.24344439-.02727273.43279003-.16363636.62213566-.3 3.70576464-2.94545454 7.65497364-3.6 10.38696074-3.54545454 3.2459252.05454545 6.5729985 1.58181818 6.4918504 3.95454545s-3.2188759 3.9818182-7.6549736 3.9c-8.89924501-.1636364-13.41649094-3.19090909-17.47389746-10.47272727" fill="#f5804b"/><path d="m25.1393121 36.8727-.0811481-.9818182-.4057407.9818182h-.1352469l-.4057406-.9545455-.0811481.982091h-.1893457l.1352469-1.3093637h.1893456l.4601099 1.0366364.4325196-1.0366364h.1893456l.1081975 1.3093637h-.216395zm-1.433617-1.3090909v.1636364h-.4598394v1.1454545h-.1893456v-1.1454545h-.4595689v-.1636364z" fill="#117159"/></g></svg>